Simulation
nRows=27
nColumns=15
endheader
time  TH_x TH_y TH_z SC_y  SC_z  SC_x  AC_y  AC_z  AC_x  GH_y  GH_z  GH_yy  EL_x  PS_y
5.382082397003745  0.000000  0.000000  0.000000  -31.532639137039816  9.557102362904839  15.10603846063143  53.534521923130505  18.377955841216753  9.052762191376708  1.3369354950479941  65.07391136795297  -0.5608823112007969  13.453464857286466  120.000000
5.422247191011236  0.000000  0.000000  0.000000  -31.50131994468886  9.442132867953962  15.16969957860705  53.59736243429459  18.24902440000755  8.759173403147651  1.4584953804094667  65.18302050074533  -0.8273570490850864  13.47523535624734  120.000000
5.4624119850187265  0.000000  0.000000  0.000000  -31.355461508512736  9.309738609134389  15.070084634296435  53.66132396141265  18.100533313315314  8.408098351059495  1.5961669292156169  65.05969251492684  -0.9965487488548734  13.416723117480203  120.000000
5.502576779026217  0.000000  0.000000  0.000000  -31.098210365878614  9.159538600897088  14.797909335332289  53.732996320794435  17.92713997076375  8.003054575843104  1.7487564851994897  64.6881459604403  -1.0776081096188737  13.293772355250217  120.000000
5.542741573033708  0.000000  0.000000  0.000000  -30.73631606072719  8.989662999518233  14.347322338115912  53.81889999546671  17.722625996250045  7.551297764763367  1.913664927816495  64.05498289366894  -1.0823225259112472  13.128397891110854  120.000000
5.582906367041199  0.000000  0.000000  0.000000  -30.280166606284592  8.796532887322252  13.716622188735295  53.92366550152853  17.480664786750452  7.063907650885207  2.0882880096969956  63.15106560171081  -1.0223762639927438  12.944865569445057  120.000000
5.623071161048689  0.000000  0.000000  0.000000  -29.743917371121135  8.575139261262848  12.90882916352945  54.048660425866956  17.19570861221517  6.5553993499740635  2.271030284375087  61.97327968417882  -0.906612761645666  12.765544529314008  120.000000
5.66323595505618  0.000000  0.000000  0.000000  -29.145266940887407  8.319748435202463  11.932230260517255  54.19142646496435  16.863927008082154  6.042956115549143  2.4618709624461093  60.52584878637861  -0.7388361583689299  12.607488375339322  120.000000
5.70340074906367  0.000000  0.000000  0.000000  -28.504692419163675  8.025023206052726  10.800670156432728  54.346089395974495  16.484027010970646  5.545438335520114  2.6624776573337905  58.820724604252774  -0.5168211898371626  12.480558125683256  120.000000
5.743565543071161  0.000000  0.000000  0.000000  -27.84426028878618  7.687154470579846  9.533459591483828  54.50450875746615  16.05771162630074  5.082134356715704  2.875787451143147  56.87685836055875  -0.2324800725153892  12.387361851516497  120.000000
5.7837303370786515  0.000000  0.000000  0.000000  -27.185933046522397  7.304946680918074  8.154738368815238  54.65785874551841  15.589713692896357  4.671378842815907  3.1053595313570392  54.71844945665112  0.12692617730802855  12.32464401672887  120.000000
5.823895131086142  0.000000  0.000000  0.000000  -26.54967976850611  6.880681629364175  6.692281168060464  54.79862090672464  15.087388079714374  4.328934272734753  3.354731337408447  52.372674460544474  0.5770175358658997  12.285242432870326  120.000000
5.864059925093633  0.000000  0.000000  0.000000  -25.952216323746324  6.420477255857589  5.175762188073836  54.92168004011474  14.560114065395496  4.06681449461143  3.6264930220982734  49.86733418338226  1.134457983541291  12.260272834757936  120.000000
5.904224719101124  0.000000  0.000000  0.000000  -25.406820840931275  5.934018250621963  3.635410439844003  55.02420784141866  14.01858942438941  3.8925484769705703  3.9208640582483594  47.2292760758872  1.8156898179509613  12.24076755626445  120.000000
5.944389513108614  0.000000  0.000000  0.000000  -24.923592326895704  5.434460983185892  2.101085530883497  55.105100706467944  13.474552821927634  3.808643881557303  4.234051983495466  44.48363466364313  2.636301235903297  12.218785073066384  120.000000
5.984554307116105  0.000000  0.000000  0.000000  -24.509265456715585  4.938018577332207  0.6017458732438494  55.16485860535107  12.940416626702872  3.812610771971102  4.557592908264523  41.65370037036073  3.6105870758763436  12.188325014170964  120.000000
6.024719101123596  0.000000  0.000000  0.000000  -24.165921009226615  4.462398621637574  -0.8350776831655008  55.20607425229596  12.429025594007454  3.8980811929215227  4.879815567687363  38.76099170518988  4.750204107199307  12.14657259428375  120.000000
6.064883895131086  0.000000  0.000000  0.000000  -23.8903249104881  4.0252645235759426  -2.1833554602661738  55.23408172358397  11.953024627118868  4.056093024396445  5.187343691787657  35.82560985386674  6.063199444574303  12.094793419614216  120.000000
6.1050486891385765  0.000000  0.000000  0.000000  -23.675135698954737  3.6431677372771354  -3.4184784765975835  55.25610586174157  11.524259625619049  4.27520431129359  5.464646395487371  32.867074935542185  7.554610636404733  12.03805209461831  120.000000
6.145213483146067  0.000000  0.000000  0.000000  -23.511493550407877  3.3312274579518646  -4.518381803370955  55.27962827292074  11.153382154738622  4.541934038210933  5.692807786915525  29.905383624263475  9.228174197738916  11.984871009704037  120.000000
6.185378277153558  0.000000  0.000000  0.000000  -23.390439502437847  3.101770728462857  -5.464879434026996  55.311530201003265  10.84939312388906  4.841850146357515  5.850366194594702  26.96190429562651  11.087007423044579  11.94648551506802  120.000000
6.225543071161049  0.000000  0.000000  0.000000  -23.30297476337296  2.9625121836989647  -6.2445062004472796  55.35840438353019  10.619130533468383  5.161227161422425  5.915359008876885  24.059716952917068  13.133223204464935  11.93589573994581  120.000000
6.265707865168539  0.000000  0.000000  0.000000  -23.241565295955404  2.9160448038520004  -6.848724161880066  55.42698349220746  10.465872234569337  5.488032019719533  5.867519866422362  21.22320184316666  15.36740942424607  11.967311438154004  120.000000
6.30587265917603  0.000000  0.000000  0.000000  -23.200751485633  2.959034810758661  -7.274268796247166  55.5229383337812  10.388861319698592  5.812050216636808  5.686673410258477  18.476537661957867  17.79052226292478  12.054349920293166  120.000000
6.346037453183521  0.000000  0.000000  0.000000  -23.17877526382247  3.081995850014411  -7.52328914131552  55.6488792126811  10.38377627766794  6.126620772542482  5.347106583651952  15.842106136803359  20.4094432651937  12.208202345657392  120.000000
6.386202247191012  0.000000  0.000000  0.000000  -23.17643569577174  3.2720850857522947  -7.604346441552182  55.80612921467622  10.442470103863139  6.427021216684604  4.814447593548596  13.338306312951588  23.240047831334046  12.437208636284142  120.000000
6.426367041198501  0.000000  0.000000  0.000000  -23.193793463086692  3.5147439665039593  -7.5331577552659725  55.998894129570154  10.552875840182082  6.706324823876892  4.0437583164500595  10.97736136742807  26.3085599116569  12.745976223387215  120.000000
